<svg width="233.444" height="49.369" viewBox="0 0 233.444 49.369" xmlns="http://www.w3.org/2000/svg"><g id="svgGroup" stroke-linecap="round" fill-rule="nonzero" font-size="9pt" stroke="#ffffff" stroke-width="0.1mm" fill="#ffffff" style="stroke:#ffffff;stroke-width:0.1mm;fill:#ffffff"><path d="M 200.244 33.264 L 171.336 33.264 L 171.336 27.522 L 192.72 27.522 Q 192.654 26.334 192.093 25.047 Q 191.532 23.76 190.41 22.638 Q 189.288 21.516 187.704 20.823 Q 186.12 20.13 184.008 20.13 Q 181.302 20.13 179.124 21.549 Q 176.946 22.968 175.758 25.443 Q 174.57 27.918 174.57 31.284 Q 174.57 34.914 175.923 37.389 Q 177.276 39.864 179.52 41.118 Q 181.764 42.372 184.47 42.372 Q 187.704 42.372 189.915 40.92 Q 192.126 39.468 193.38 37.29 L 199.782 40.458 Q 197.472 44.484 193.677 46.926 Q 189.882 49.368 184.338 49.368 Q 179.256 49.368 175.329 47.058 Q 171.402 44.748 169.158 40.722 Q 166.914 36.696 166.914 31.548 Q 166.914 26.73 169.092 22.638 Q 171.27 18.546 175.098 16.071 Q 178.926 13.596 183.942 13.596 Q 189.288 13.596 192.951 15.873 Q 196.614 18.15 198.528 22.011 Q 200.442 25.872 200.442 30.69 Q 200.442 31.548 200.376 32.241 Q 200.31 32.934 200.244 33.264 Z M 42.24 7.722 L 36.564 13.266 Q 35.046 11.484 33.297 10.23 Q 31.548 8.976 29.403 8.316 Q 27.258 7.656 24.684 7.656 Q 20.13 7.656 16.368 9.768 Q 12.606 11.88 10.362 15.675 Q 8.118 19.47 8.118 24.684 Q 8.118 29.832 10.362 33.66 Q 12.606 37.488 16.368 39.6 Q 20.13 41.712 24.684 41.712 Q 28.842 41.712 32.043 39.996 Q 35.244 38.28 37.752 35.31 L 43.494 40.788 Q 41.25 43.428 38.346 45.375 Q 35.442 47.322 32.01 48.345 Q 28.578 49.368 24.684 49.368 Q 19.47 49.368 14.949 47.487 Q 10.428 45.606 7.062 42.24 Q 3.696 38.874 1.848 34.386 Q 0 29.898 0 24.684 Q 0 19.47 1.848 14.982 Q 3.696 10.494 7.062 7.128 Q 10.428 3.762 14.949 1.881 Q 19.47 0 24.684 0 Q 28.38 0 31.548 0.891 Q 34.716 1.782 37.389 3.498 Q 40.062 5.214 42.24 7.722 Z M 58.08 48.312 L 50.226 48.312 L 50.226 1.056 L 58.08 1.056 L 58.08 13.53 L 57.618 19.074 L 58.08 19.074 Q 59.532 16.698 62.337 15.147 Q 65.142 13.596 68.508 13.596 Q 72.666 13.596 75.504 15.279 Q 78.342 16.962 79.761 20.031 Q 81.18 23.1 81.18 27.192 L 81.18 48.312 L 73.26 48.312 L 73.26 28.248 Q 73.26 25.74 72.369 24.123 Q 71.478 22.506 69.927 21.714 Q 68.376 20.922 66.396 20.922 Q 63.954 20.922 62.073 22.275 Q 60.192 23.628 59.136 25.872 Q 58.08 28.116 58.08 30.822 L 58.08 48.312 Z M 204.468 40.326 L 211.464 37.224 Q 212.652 39.798 214.731 41.118 Q 216.81 42.438 219.516 42.438 Q 221.892 42.438 223.707 41.613 Q 225.522 40.788 225.522 38.808 Q 225.522 37.422 224.631 36.597 Q 223.74 35.772 222.354 35.244 Q 220.968 34.716 219.318 34.386 L 215.292 33.462 Q 212.85 32.934 210.705 31.614 Q 208.56 30.294 207.207 28.281 Q 205.854 26.268 205.854 23.562 Q 205.854 20.526 207.636 18.282 Q 209.418 16.038 212.388 14.817 Q 215.358 13.596 218.922 13.596 Q 222.156 13.596 224.829 14.388 Q 227.502 15.18 229.449 16.797 Q 231.396 18.414 232.518 20.922 L 225.786 23.892 Q 224.664 21.78 222.882 20.922 Q 221.1 20.064 218.988 20.064 Q 216.612 20.064 215.127 21.021 Q 213.642 21.978 213.642 23.43 Q 213.642 24.882 215.061 25.839 Q 216.48 26.796 218.46 27.324 L 223.41 28.512 Q 228.36 29.7 230.901 32.307 Q 233.442 34.914 233.442 38.61 Q 233.442 41.844 231.561 44.286 Q 229.68 46.728 226.512 48.048 Q 223.344 49.368 219.45 49.368 Q 215.226 49.368 212.19 48.114 Q 209.154 46.86 207.273 44.814 Q 205.392 42.768 204.468 40.326 Z M 110.088 28.446 L 110.088 26.862 Q 110.088 23.826 107.877 21.945 Q 105.666 20.064 102.036 20.064 Q 99.528 20.064 97.284 21.186 Q 95.04 22.308 93.588 24.222 L 88.374 20.13 Q 89.958 18.084 92.07 16.599 Q 94.182 15.114 96.822 14.355 Q 99.462 13.596 102.3 13.596 Q 109.824 13.596 113.817 17.193 Q 117.81 20.79 117.81 27.456 L 117.81 48.312 L 110.088 48.312 L 110.088 44.55 L 109.626 44.55 Q 108.768 45.804 107.316 46.893 Q 105.864 47.982 103.95 48.675 Q 102.036 49.368 99.66 49.368 Q 96.03 49.368 93.258 47.949 Q 90.486 46.53 88.902 43.956 Q 87.318 41.382 87.318 38.082 Q 87.318 34.518 89.166 31.977 Q 91.014 29.436 94.116 28.083 Q 97.218 26.73 101.046 26.73 Q 103.092 26.73 104.841 26.994 Q 106.59 27.258 107.943 27.654 Q 109.296 28.05 110.088 28.446 Z M 101.31 43.098 Q 104.016 43.098 105.996 41.877 Q 107.976 40.656 109.032 38.643 Q 110.088 36.63 110.088 34.386 Q 108.636 33.528 106.689 33.066 Q 104.742 32.604 102.63 32.604 Q 98.538 32.604 96.888 34.188 Q 95.238 35.772 95.238 38.082 Q 95.238 40.26 96.822 41.679 Q 98.406 43.098 101.31 43.098 Z M 133.518 48.312 L 125.664 48.312 L 125.664 14.652 L 133.056 14.652 L 133.056 19.404 L 133.518 19.404 Q 134.31 17.688 135.762 16.434 Q 137.214 15.18 139.161 14.421 Q 141.108 13.662 143.22 13.662 Q 144.606 13.662 145.629 13.86 Q 146.652 14.058 147.378 14.388 L 147.378 22.374 Q 146.124 21.846 144.804 21.516 Q 143.484 21.186 142.032 21.186 Q 139.458 21.186 137.544 22.473 Q 135.63 23.76 134.574 26.004 Q 133.518 28.248 133.518 31.02 L 133.518 48.312 Z M 160.446 48.312 L 152.592 48.312 L 152.592 1.056 L 160.446 1.056 L 160.446 48.312 Z" vector-effect="non-scaling-stroke"/></g></svg>